<svg width="20" height="20" viewBox="0 0 20 20" fill="none" xmlns="http://www.w3.org/2000/svg">
<rect width="20" height="20" fill="white"/>
<path d="M15.75 8C15.75 8.13807 15.8619 8.25 16 8.25C16.1381 8.25 16.25 8.13807 16.25 8H15.75ZM11.8232 3.82322C11.7256 3.92085 11.7256 4.07915 11.8232 4.17678L13.4142 5.76777C13.5118 5.8654 13.6701 5.8654 13.7678 5.76777C13.8654 5.67014 13.8654 5.51184 13.7678 5.41421L12.3536 4L13.7678 2.58579C13.8654 2.48816 13.8654 2.32986 13.7678 2.23223C13.6701 2.1346 13.5118 2.1346 13.4142 2.23223L11.8232 3.82322ZM16.25 8V6H15.75V8H16.25ZM14 3.75H12V4.25H14V3.75ZM16.25 6C16.25 4.75736 15.2426 3.75 14 3.75V4.25C14.9665 4.25 15.75 5.0335 15.75 6H16.25Z" fill="black"/>
<path d="M4.25 12C4.25 11.8619 4.13807 11.75 4 11.75C3.86193 11.75 3.75 11.8619 3.75 12H4.25ZM8.17678 16.1768C8.27441 16.0791 8.27441 15.9209 8.17678 15.8232L6.58579 14.2322C6.48816 14.1346 6.32986 14.1346 6.23223 14.2322C6.1346 14.3299 6.1346 14.4882 6.23223 14.5858L7.64645 16L6.23223 17.4142C6.1346 17.5118 6.1346 17.6701 6.23223 17.7678C6.32986 17.8654 6.48816 17.8654 6.58579 17.7678L8.17678 16.1768ZM3.75 12V14H4.25V12H3.75ZM6 16.25H8V15.75H6V16.25ZM3.75 14C3.75 15.2426 4.75736 16.25 6 16.25V15.75C5.0335 15.75 4.25 14.9665 4.25 14H3.75Z" fill="black"/>
<path fill-rule="evenodd" clip-rule="evenodd" d="M9 12V18C9 19.1046 9.89543 20 11 20H18C19.1046 20 20 19.1046 20 18V11C20 9.89543 19.1046 9 18 9H12V9.5H18C18.8284 9.5 19.5 10.1716 19.5 11V18C19.5 18.8284 18.8284 19.5 18 19.5H11C10.1716 19.5 9.5 18.8284 9.5 18V12H9Z" fill="black"/>
<path d="M11.8253 17H11.179L13.0483 11.9091H13.6847L15.554 17H14.9077L13.3864 12.7145H13.3466L11.8253 17ZM12.0639 15.0114H14.669V15.5582H12.0639V15.0114ZM16.2674 17V13.1818H16.8342V13.7585H16.8739C16.9435 13.5696 17.0695 13.4163 17.2518 13.2987C17.4341 13.181 17.6396 13.1222 17.8683 13.1222C17.9113 13.1222 17.9652 13.123 18.0298 13.1246C18.0945 13.1263 18.1433 13.1288 18.1765 13.1321V13.7287C18.1566 13.7237 18.111 13.7163 18.0398 13.7063C17.9702 13.6947 17.8964 13.6889 17.8185 13.6889C17.6329 13.6889 17.4672 13.7279 17.3214 13.8058C17.1772 13.882 17.0629 13.988 16.9783 14.1239C16.8955 14.2582 16.854 14.4115 16.854 14.5838V17H16.2674Z" fill="black"/>
<rect x="0.25" y="0.25" width="10.5" height="10.5" rx="1.75" stroke="black" stroke-width="0.5"/>
<path d="M2.61648 8V2.90909H5.66903V3.45597H3.23295V5.17614H5.44034V5.72301H3.23295V8H2.61648ZM6.60431 8V4.18182H7.17108V4.75852H7.21085C7.28045 4.5696 7.4064 4.41631 7.58869 4.29865C7.77098 4.18099 7.97647 4.12216 8.20517 4.12216C8.24825 4.12216 8.30211 4.12299 8.36674 4.12464C8.43137 4.1263 8.48026 4.12879 8.51341 4.1321V4.72869C8.49352 4.72372 8.44795 4.71626 8.37669 4.70632C8.30708 4.69472 8.23334 4.68892 8.15545 4.68892C7.96985 4.68892 7.80413 4.72786 7.65829 4.80575C7.51412 4.88198 7.39977 4.98804 7.31525 5.12393C7.23239 5.25817 7.19096 5.41146 7.19096 5.58381V8H6.60431Z" fill="black"/>
<path d="M15.75 8C15.75 8.13807 15.8619 8.25 16 8.25C16.1381 8.25 16.25 8.13807 16.25 8H15.75ZM11.8232 3.82322C11.7256 3.92085 11.7256 4.07915 11.8232 4.17678L13.4142 5.76777C13.5118 5.8654 13.6701 5.8654 13.7678 5.76777C13.8654 5.67014 13.8654 5.51184 13.7678 5.41421L12.3536 4L13.7678 2.58579C13.8654 2.48816 13.8654 2.32986 13.7678 2.23223C13.6701 2.1346 13.5118 2.1346 13.4142 2.23223L11.8232 3.82322ZM16.25 8V6H15.75V8H16.25ZM14 3.75H12V4.25H14V3.75ZM16.25 6C16.25 4.75736 15.2426 3.75 14 3.75V4.25C14.9665 4.25 15.75 5.0335 15.75 6H16.25Z" fill="black"/>
<path d="M4.25 12C4.25 11.8619 4.13807 11.75 4 11.75C3.86193 11.75 3.75 11.8619 3.75 12H4.25ZM8.17678 16.1768C8.27441 16.0791 8.27441 15.9209 8.17678 15.8232L6.58579 14.2322C6.48816 14.1346 6.32986 14.1346 6.23223 14.2322C6.1346 14.3299 6.1346 14.4882 6.23223 14.5858L7.64645 16L6.23223 17.4142C6.1346 17.5118 6.1346 17.6701 6.23223 17.7678C6.32986 17.8654 6.48816 17.8654 6.58579 17.7678L8.17678 16.1768ZM3.75 12V14H4.25V12H3.75ZM6 16.25H8V15.75H6V16.25ZM3.75 14C3.75 15.2426 4.75736 16.25 6 16.25V15.75C5.0335 15.75 4.25 14.9665 4.25 14H3.75Z" fill="black"/>
<path fill-rule="evenodd" clip-rule="evenodd" d="M9 12V18C9 19.1046 9.89543 20 11 20H18C19.1046 20 20 19.1046 20 18V11C20 9.89543 19.1046 9 18 9H12V9.5H18C18.8284 9.5 19.5 10.1716 19.5 11V18C19.5 18.8284 18.8284 19.5 18 19.5H11C10.1716 19.5 9.5 18.8284 9.5 18V12H9Z" fill="black"/>
<path d="M11.6165 17V11.9091H14.669V12.456H12.233V14.1761H14.4403V14.723H12.233V17H11.6165ZM15.6043 17V13.1818H16.1711V13.7585H16.2108C16.2805 13.5696 16.4064 13.4163 16.5887 13.2987C16.771 13.181 16.9765 13.1222 17.2052 13.1222C17.2483 13.1222 17.3021 13.123 17.3667 13.1246C17.4314 13.1263 17.4803 13.1288 17.5134 13.1321V13.7287C17.4935 13.7237 17.4479 13.7163 17.3767 13.7063C17.3071 13.6947 17.2333 13.6889 17.1555 13.6889C16.9698 13.6889 16.8041 13.7279 16.6583 13.8058C16.5141 13.882 16.3998 13.988 16.3153 14.1239C16.2324 14.2582 16.191 14.4115 16.191 14.5838V17H15.6043Z" fill="black"/>
<rect x="0.25" y="0.25" width="10.5" height="10.5" rx="1.75" stroke="black" stroke-width="0.5"/>
<path d="M2.82528 8H2.17898L4.0483 2.90909H4.68466L6.55398 8H5.90767L4.38636 3.71449H4.34659L2.82528 8ZM3.06392 6.01136H5.66903V6.55824H3.06392V6.01136ZM7.2674 8V4.18182H7.83416V4.75852H7.87393C7.94354 4.5696 8.06948 4.41631 8.25178 4.29865C8.43407 4.18099 8.63956 4.12216 8.86825 4.12216C8.91134 4.12216 8.9652 4.12299 9.02983 4.12464C9.09446 4.1263 9.14335 4.12879 9.17649 4.1321V4.72869C9.15661 4.72372 9.11103 4.71626 9.03977 4.70632C8.97017 4.69472 8.89643 4.68892 8.81854 4.68892C8.63293 4.68892 8.46721 4.72786 8.32138 4.80575C8.1772 4.88198 8.06286 4.98804 7.97834 5.12393C7.89548 5.25817 7.85405 5.41146 7.85405 5.58381V8H7.2674Z" fill="black"/>
</svg>
