                <svg   width="35" height="35" viewBox="0 0 20 20" fill="white" xmlns="http://www.w3.org/2000/svg">
                  <path d="M4.25 12C4.25 11.8619 4.13807 11.75 4 11.75C3.86193 11.75 3.75 11.8619 3.75 12H4.25ZM8.17678 16.1768C8.27441 16.0791 8.27441 15.9209 8.17678 15.8232L6.58579 14.2322C6.48816 14.1346 6.32986 14.1346 6.23223 14.2322C6.1346 14.3299 6.1346 14.4882 6.23223 14.5858L7.64645 16L6.23223 17.4142C6.1346 17.5118 6.1346 17.6701 6.23223 17.7678C6.32986 17.8654 6.48816 17.8654 6.58579 17.7678L8.17678 16.1768ZM3.75 12V14H4.25V12H3.75ZM6 16.25H8V15.75H6V16.25ZM3.75 14C3.75 15.2426 4.75736 16.25 6 16.25V15.75C5.0335 15.75 4.25 14.9665 4.25 14H3.75Z" fill="white"/>
                  <path fill-rule="evenodd" clip-rule="evenodd" d="M9 12V18C9 19.1046 9.89543 20 11 20H18C19.1046 20 20 19.1046 20 18V11C20 9.89543 19.1046 9 18 9H12V9.5H18C18.8284 9.5 19.5 10.1716 19.5 11V18C19.5 18.8284 18.8284 19.5 18 19.5H11C10.1716 19.5 9.5 18.8284 9.5 18V12H9Z" fill="white"/>
                  <path d="M11.5724 17V12.2727H14.4254V12.7805H12.1449V14.3778H14.2777V14.8857H12.1449V16.4922H14.4624V17H11.5724ZM15.9281 14.8672V17H15.3833V13.4545H15.9096V14.0085H15.9558C16.0389 13.8285 16.1651 13.6838 16.3343 13.5746C16.5036 13.4638 16.7221 13.4084 16.9899 13.4084C17.2299 13.4084 17.44 13.4576 17.62 13.5561C17.8001 13.6531 17.9401 13.8008 18.0401 13.9993C18.1402 14.1963 18.1902 14.4455 18.1902 14.7472V17H17.6454V14.7841C17.6454 14.5056 17.5731 14.2886 17.4284 14.1332C17.2838 13.9762 17.0853 13.8977 16.8329 13.8977C16.659 13.8977 16.5036 13.9354 16.3667 14.0108C16.2312 14.0862 16.1243 14.1963 16.0458 14.3409C15.9673 14.4856 15.9281 14.661 15.9281 14.8672Z" fill="white"/>
                  <rect x="0.25" y="0.25" width="10.5" height="10.5" rx="1.75" stroke="white" stroke-width="0.5"/>
                  <path d="M2.61648 8V2.90909H5.66903V3.45597H3.23295V5.17614H5.44034V5.72301H3.23295V8H2.61648ZM6.60431 8V4.18182H7.17108V4.75852H7.21085C7.28045 4.5696 7.4064 4.41631 7.58869 4.29865C7.77098 4.18099 7.97647 4.12216 8.20517 4.12216C8.24825 4.12216 8.30211 4.12299 8.36674 4.12464C8.43137 4.1263 8.48026 4.12879 8.51341 4.1321V4.72869C8.49352 4.72372 8.44795 4.71626 8.37669 4.70632C8.30708 4.69472 8.23334 4.68892 8.15545 4.68892C7.96985 4.68892 7.80413 4.72786 7.65829 4.80575C7.51412 4.88198 7.39977 4.98804 7.31525 5.12393C7.23239 5.25817 7.19096 5.41146 7.19096 5.58381V8H6.60431Z" fill="black"/>
                </svg>