                <svg  width="35" height="35" viewBox="0 0 20 20" fill="white" xmlns="http://www.w3.org/2000/svg">
                  <path d="M4.25 12C4.25 11.8619 4.13807 11.75 4 11.75C3.86193 11.75 3.75 11.8619 3.75 12H4.25ZM8.17678 16.1768C8.27441 16.0791 8.27441 15.9209 8.17678 15.8232L6.58579 14.2322C6.48816 14.1346 6.32986 14.1346 6.23223 14.2322C6.1346 14.3299 6.1346 14.4882 6.23223 14.5858L7.64645 16L6.23223 17.4142C6.1346 17.5118 6.1346 17.6701 6.23223 17.7678C6.32986 17.8654 6.48816 17.8654 6.58579 17.7678L8.17678 16.1768ZM3.75 12V14H4.25V12H3.75ZM6 16.25H8V15.75H6V16.25ZM3.75 14C3.75 15.2426 4.75736 16.25 6 16.25V15.75C5.0335 15.75 4.25 14.9665 4.25 14H3.75Z" fill="white"/>
                  <path fill-rule="evenodd" clip-rule="evenodd" d="M9 12V18C9 19.1046 9.89543 20 11 20H18C19.1046 20 20 19.1046 20 18V11C20 9.89543 19.1046 9 18 9H12V9.5H18C18.8284 9.5 19.5 10.1716 19.5 11V18C19.5 18.8284 18.8284 19.5 18 19.5H11C10.1716 19.5 9.5 18.8284 9.5 18V12H9Z" fill="white"/>
                  <path d="M11.6165 17V11.9091H14.669V12.456H12.233V14.1761H14.4403V14.723H12.233V17H11.6165ZM15.6043 17V13.1818H16.1711V13.7585H16.2108C16.2805 13.5696 16.4064 13.4163 16.5887 13.2987C16.771 13.181 16.9765 13.1222 17.2052 13.1222C17.2483 13.1222 17.3021 13.123 17.3667 13.1246C17.4314 13.1263 17.4803 13.1288 17.5134 13.1321V13.7287C17.4935 13.7237 17.4479 13.7163 17.3767 13.7063C17.3071 13.6947 17.2333 13.6889 17.1555 13.6889C16.9698 13.6889 16.8041 13.7279 16.6583 13.8058C16.5141 13.882 16.3998 13.988 16.3153 14.1239C16.2324 14.2582 16.191 14.4115 16.191 14.5838V17H15.6043Z" fill="white"/>
                  <rect x="0.25" y="0.25" width="10.5" height="10.5" rx="1.75" stroke="white" stroke-width="0.5"/>
                  <path d="M2.57244 8V3.27273H5.42543V3.78054H3.14489V5.37784H5.2777V5.88565H3.14489V7.49219H5.46236V8H2.57244ZM6.92809 5.86719V8H6.38335V4.45455H6.90962V5.00852H6.95579C7.03889 4.82848 7.16507 4.68383 7.33434 4.57457C7.50361 4.46378 7.72212 4.40838 7.98988 4.40838C8.22994 4.40838 8.43999 4.45762 8.62003 4.55611C8.80007 4.65305 8.9401 4.80078 9.04013 4.99929C9.14015 5.19626 9.19016 5.44555 9.19016 5.74716V8H8.64542V5.78409C8.64542 5.50556 8.57309 5.28859 8.42844 5.13317C8.2838 4.97621 8.08529 4.89773 7.83292 4.89773C7.65903 4.89773 7.50361 4.93543 7.36665 5.01083C7.23124 5.08623 7.12429 5.19626 7.04581 5.34091C6.96733 5.48556 6.92809 5.66098 6.92809 5.86719Z" fill="black"/>
                </svg>