<?xml version="1.0" encoding="utf-8"?>
<!-- Generator: Adobe Illustrator 25.2.0, SVG Export Plug-In . SVG Version: 6.00 Build 0)  -->
<svg version="1.1" id="Layer_1" xmlns="http://www.w3.org/2000/svg" xmlns:xlink="http://www.w3.org/1999/xlink" x="0px" y="0px"
	 viewBox="0 0 595.28 841.89" style="enable-background:new 0 0 595.28 841.89;" xml:space="preserve">
<style type="text/css">
	.st0{fill:none;stroke:#FFFFFF;stroke-width:6;stroke-miterlimit:10;}
	.st1{fill:none;stroke:#FFFFFF;stroke-width:7;stroke-linecap:round;stroke-miterlimit:10;}
</style>
<path class="st0" d="M296.33,826.6L296.33,826.6c-120.71,0-218.57-97.86-218.57-218.57V233.86c0-120.71,97.86-218.57,218.57-218.57
	h0c120.71,0,218.57,97.86,218.57,218.57v374.17C514.9,728.74,417.05,826.6,296.33,826.6z"/>
<path class="st0" d="M296.33,319.62L296.33,319.62c-19.18,0-34.73-15.55-34.73-34.73v-83.35c0-19.18,15.55-34.73,34.73-34.73h0
	c19.18,0,34.73,15.55,34.73,34.73v83.35C331.06,304.07,315.51,319.62,296.33,319.62z"/>
<polyline class="st1" points="226.81,375 295.56,443.75 363.41,375.89 "/>
</svg>
