<svg width="500" height="500" viewBox="0 0 500 500" fill="none" xmlns="http://www.w3.org/2000/svg">
<g clip-path="url(#clip0_3_2)">
<rect width="500" height="500" fill="white"/>
<rect x="500" width="500" height="250" transform="rotate(90 500 0)" fill="#100146"/>
<rect width="250" height="250" fill="white"/>
<rect y="250" width="250" height="250" fill="black"/>
<path d="M114.457 385.481C113.683 385.481 112.937 385.355 112.217 385.101C111.51 384.848 110.93 384.455 110.477 383.921C110.023 383.375 109.783 382.668 109.757 381.801H110.677C110.677 381.841 110.69 381.968 110.717 382.181C110.743 382.381 110.81 382.621 110.917 382.901C111.037 383.168 111.23 383.435 111.497 383.701C111.777 383.968 112.157 384.195 112.637 384.381C113.117 384.555 113.743 384.641 114.517 384.641C115.21 384.641 115.763 384.561 116.177 384.401C116.603 384.228 116.923 384.021 117.137 383.781C117.35 383.541 117.49 383.308 117.557 383.081C117.637 382.841 117.683 382.661 117.697 382.541C117.71 382.035 117.577 381.628 117.297 381.321C117.03 381.001 116.67 380.748 116.217 380.561C115.777 380.361 115.283 380.195 114.737 380.061C114.203 379.928 113.663 379.788 113.117 379.641C112.583 379.481 112.09 379.281 111.637 379.041C111.197 378.801 110.843 378.488 110.577 378.101C110.31 377.715 110.19 377.208 110.217 376.581C110.243 375.995 110.443 375.495 110.817 375.081C111.203 374.655 111.71 374.328 112.337 374.101C112.963 373.875 113.663 373.761 114.437 373.761C115.183 373.761 115.87 373.895 116.497 374.161C117.123 374.428 117.617 374.828 117.977 375.361C118.35 375.895 118.523 376.561 118.497 377.361H117.597C117.61 376.801 117.503 376.341 117.277 375.981C117.063 375.621 116.783 375.341 116.437 375.141C116.09 374.941 115.73 374.808 115.357 374.741C114.983 374.661 114.65 374.621 114.357 374.621C113.437 374.621 112.677 374.815 112.077 375.201C111.477 375.575 111.17 376.055 111.157 376.641C111.143 377.148 111.27 377.555 111.537 377.861C111.817 378.168 112.177 378.415 112.617 378.601C113.07 378.775 113.563 378.928 114.097 379.061C114.643 379.195 115.183 379.335 115.717 379.481C116.25 379.628 116.737 379.821 117.177 380.061C117.63 380.301 117.983 380.628 118.237 381.041C118.503 381.441 118.63 381.961 118.617 382.601C118.59 383.215 118.39 383.735 118.017 384.161C117.643 384.588 117.143 384.915 116.517 385.141C115.903 385.368 115.217 385.481 114.457 385.481ZM124.091 385.421C123.558 385.421 123.098 385.328 122.711 385.141C122.338 384.955 122.031 384.728 121.791 384.461C121.551 384.195 121.371 383.948 121.251 383.721C121.131 383.495 121.051 383.335 121.011 383.241H120.971V388.421H120.051V377.101H120.831L120.991 379.301H121.031C121.058 379.208 121.125 379.048 121.231 378.821C121.351 378.581 121.525 378.335 121.751 378.081C121.991 377.815 122.298 377.588 122.671 377.401C123.058 377.201 123.525 377.101 124.071 377.101C124.858 377.101 125.518 377.288 126.051 377.661C126.598 378.035 127.011 378.535 127.291 379.161C127.585 379.788 127.731 380.495 127.731 381.281C127.731 382.068 127.585 382.775 127.291 383.401C126.998 384.028 126.578 384.521 126.031 384.881C125.498 385.241 124.851 385.421 124.091 385.421ZM123.991 384.561C124.658 384.561 125.198 384.408 125.611 384.101C126.038 383.781 126.345 383.368 126.531 382.861C126.731 382.355 126.831 381.821 126.831 381.261C126.831 380.701 126.718 380.175 126.491 379.681C126.278 379.175 125.951 378.768 125.511 378.461C125.071 378.141 124.518 377.981 123.851 377.981C123.051 377.981 122.378 378.275 121.831 378.861C121.298 379.435 121.031 380.235 121.031 381.261C121.031 382.315 121.318 383.128 121.891 383.701C122.465 384.275 123.165 384.561 123.991 384.561ZM131.728 385.401C130.981 385.401 130.361 385.215 129.868 384.841C129.375 384.468 129.008 383.968 128.768 383.341C128.528 382.701 128.408 381.995 128.408 381.221C128.408 380.421 128.528 379.708 128.768 379.081C129.021 378.441 129.395 377.941 129.888 377.581C130.381 377.208 130.995 377.021 131.728 377.021C132.515 377.021 133.141 377.215 133.608 377.601C134.075 377.975 134.408 378.408 134.608 378.901H134.648V377.101H135.568V385.221H134.808L134.648 383.541H134.608C134.395 384.035 134.055 384.468 133.588 384.841C133.121 385.215 132.501 385.401 131.728 385.401ZM132.068 384.561C132.921 384.561 133.561 384.268 133.988 383.681C134.415 383.095 134.628 382.281 134.628 381.241C134.628 380.135 134.401 379.301 133.948 378.741C133.508 378.181 132.881 377.901 132.068 377.901C131.121 377.901 130.428 378.221 129.988 378.861C129.548 379.488 129.328 380.275 129.328 381.221C129.328 382.208 129.555 383.015 130.008 383.641C130.461 384.255 131.148 384.561 132.068 384.561ZM140.43 385.421C139.283 385.421 138.35 385.061 137.63 384.341C136.91 383.621 136.55 382.628 136.55 381.361C136.563 380.521 136.736 379.781 137.07 379.141C137.403 378.501 137.863 378.001 138.45 377.641C139.036 377.281 139.716 377.101 140.49 377.101C141.476 377.101 142.29 377.375 142.93 377.921C143.583 378.455 143.983 379.128 144.13 379.941H143.27C143.136 379.315 142.816 378.828 142.31 378.481C141.816 378.121 141.216 377.941 140.51 377.941C139.59 377.941 138.85 378.255 138.29 378.881C137.73 379.508 137.45 380.321 137.45 381.321C137.45 382.321 137.716 383.115 138.25 383.701C138.796 384.288 139.53 384.581 140.45 384.581C141.17 384.581 141.783 384.401 142.29 384.041C142.81 383.681 143.136 383.188 143.27 382.561H144.13C143.983 383.388 143.576 384.075 142.91 384.621C142.243 385.155 141.416 385.421 140.43 385.421ZM149.016 385.421C148.15 385.421 147.43 385.215 146.856 384.801C146.296 384.388 145.876 383.861 145.596 383.221C145.316 382.568 145.183 381.895 145.196 381.201C145.196 380.481 145.343 379.808 145.636 379.181C145.93 378.555 146.356 378.055 146.916 377.681C147.49 377.295 148.183 377.101 148.996 377.101C150.01 377.101 150.843 377.435 151.496 378.101C152.163 378.755 152.536 379.635 152.616 380.741C152.63 380.808 152.636 380.888 152.636 380.981C152.636 381.075 152.636 381.161 152.636 381.241H146.076C146.076 382.268 146.33 383.088 146.836 383.701C147.343 384.315 148.07 384.621 149.016 384.621C149.696 384.621 150.283 384.441 150.776 384.081C151.283 383.721 151.596 383.235 151.716 382.621H152.616C152.456 383.448 152.05 384.121 151.396 384.641C150.756 385.161 149.963 385.421 149.016 385.421ZM146.136 380.641H151.696C151.683 380.295 151.583 379.908 151.396 379.481C151.223 379.055 150.936 378.681 150.536 378.361C150.15 378.041 149.636 377.881 148.996 377.881C148.116 377.881 147.443 378.155 146.976 378.701C146.51 379.248 146.23 379.895 146.136 380.641ZM158.543 385.481C157.769 385.481 157.023 385.355 156.303 385.101C155.596 384.848 155.016 384.455 154.563 383.921C154.109 383.375 153.869 382.668 153.843 381.801H154.763C154.763 381.841 154.776 381.968 154.803 382.181C154.829 382.381 154.896 382.621 155.003 382.901C155.123 383.168 155.316 383.435 155.583 383.701C155.863 383.968 156.243 384.195 156.723 384.381C157.203 384.555 157.829 384.641 158.603 384.641C159.296 384.641 159.849 384.561 160.263 384.401C160.689 384.228 161.009 384.021 161.223 383.781C161.436 383.541 161.576 383.308 161.643 383.081C161.723 382.841 161.769 382.661 161.783 382.541C161.796 382.035 161.663 381.628 161.383 381.321C161.116 381.001 160.756 380.748 160.303 380.561C159.863 380.361 159.369 380.195 158.823 380.061C158.289 379.928 157.749 379.788 157.203 379.641C156.669 379.481 156.176 379.281 155.723 379.041C155.283 378.801 154.929 378.488 154.663 378.101C154.396 377.715 154.276 377.208 154.303 376.581C154.329 375.995 154.529 375.495 154.903 375.081C155.289 374.655 155.796 374.328 156.423 374.101C157.049 373.875 157.749 373.761 158.523 373.761C159.269 373.761 159.956 373.895 160.583 374.161C161.209 374.428 161.703 374.828 162.063 375.361C162.436 375.895 162.609 376.561 162.583 377.361H161.683C161.696 376.801 161.589 376.341 161.363 375.981C161.149 375.621 160.869 375.341 160.523 375.141C160.176 374.941 159.816 374.808 159.443 374.741C159.069 374.661 158.736 374.621 158.443 374.621C157.523 374.621 156.763 374.815 156.163 375.201C155.563 375.575 155.256 376.055 155.243 376.641C155.229 377.148 155.356 377.555 155.623 377.861C155.903 378.168 156.263 378.415 156.703 378.601C157.156 378.775 157.649 378.928 158.183 379.061C158.729 379.195 159.269 379.335 159.803 379.481C160.336 379.628 160.823 379.821 161.263 380.061C161.716 380.301 162.069 380.628 162.323 381.041C162.589 381.441 162.716 381.961 162.703 382.601C162.676 383.215 162.476 383.735 162.103 384.161C161.729 384.588 161.229 384.915 160.603 385.141C159.989 385.368 159.303 385.481 158.543 385.481ZM167.537 385.421C166.671 385.421 165.951 385.215 165.377 384.801C164.817 384.388 164.397 383.861 164.117 383.221C163.837 382.568 163.704 381.895 163.717 381.201C163.717 380.481 163.864 379.808 164.157 379.181C164.451 378.555 164.877 378.055 165.437 377.681C166.011 377.295 166.704 377.101 167.517 377.101C168.531 377.101 169.364 377.435 170.017 378.101C170.684 378.755 171.057 379.635 171.137 380.741C171.151 380.808 171.157 380.888 171.157 380.981C171.157 381.075 171.157 381.161 171.157 381.241H164.597C164.597 382.268 164.851 383.088 165.357 383.701C165.864 384.315 166.591 384.621 167.537 384.621C168.217 384.621 168.804 384.441 169.297 384.081C169.804 383.721 170.117 383.235 170.237 382.621H171.137C170.977 383.448 170.571 384.121 169.917 384.641C169.277 385.161 168.484 385.421 167.537 385.421ZM164.657 380.641H170.217C170.204 380.295 170.104 379.908 169.917 379.481C169.744 379.055 169.457 378.681 169.057 378.361C168.671 378.041 168.157 377.881 167.517 377.881C166.637 377.881 165.964 378.155 165.497 378.701C165.031 379.248 164.751 379.895 164.657 380.641ZM176.144 385.421C174.997 385.421 174.064 385.061 173.344 384.341C172.624 383.621 172.264 382.628 172.264 381.361C172.277 380.521 172.45 379.781 172.784 379.141C173.117 378.501 173.577 378.001 174.164 377.641C174.75 377.281 175.43 377.101 176.204 377.101C177.19 377.101 178.004 377.375 178.644 377.921C179.297 378.455 179.697 379.128 179.844 379.941H178.984C178.85 379.315 178.53 378.828 178.024 378.481C177.53 378.121 176.93 377.941 176.224 377.941C175.304 377.941 174.564 378.255 174.004 378.881C173.444 379.508 173.164 380.321 173.164 381.321C173.164 382.321 173.43 383.115 173.964 383.701C174.51 384.288 175.244 384.581 176.164 384.581C176.884 384.581 177.497 384.401 178.004 384.041C178.524 383.681 178.85 383.188 178.984 382.561H179.844C179.697 383.388 179.29 384.075 178.624 384.621C177.957 385.155 177.13 385.421 176.144 385.421ZM184.21 385.421C183.357 385.421 182.704 385.228 182.25 384.841C181.797 384.455 181.484 383.955 181.31 383.341C181.15 382.715 181.07 382.048 181.07 381.341V377.101H181.97V381.341C181.97 381.955 182.03 382.508 182.15 383.001C182.284 383.481 182.524 383.868 182.87 384.161C183.23 384.441 183.75 384.581 184.43 384.581C185.07 384.581 185.577 384.435 185.95 384.141C186.337 383.835 186.624 383.448 186.81 382.981C186.997 382.501 187.104 381.995 187.13 381.461L187.15 377.101H188.07V385.221H187.31L187.15 383.281H187.11C187.03 383.561 186.87 383.868 186.63 384.201C186.39 384.535 186.07 384.821 185.67 385.061C185.284 385.301 184.797 385.421 184.21 385.421ZM189.84 385.221V377.101H190.62L190.74 379.181C190.873 378.608 191.187 378.115 191.68 377.701C192.173 377.288 192.867 377.088 193.76 377.101H194.2V378.121H193.76C192.853 378.121 192.187 378.268 191.76 378.561C191.333 378.841 191.053 379.221 190.92 379.701C190.8 380.181 190.74 380.715 190.74 381.301V385.221H189.84ZM195.823 376.241C195.597 376.255 195.443 376.195 195.363 376.061C195.283 375.928 195.243 375.768 195.243 375.581C195.243 375.408 195.283 375.261 195.363 375.141C195.443 375.021 195.597 374.961 195.823 374.961C196.037 374.961 196.183 375.021 196.263 375.141C196.343 375.261 196.383 375.408 196.383 375.581C196.383 375.781 196.343 375.941 196.263 376.061C196.183 376.181 196.037 376.241 195.823 376.241ZM195.343 385.221V377.101H196.243V385.221H195.343ZM199.86 385.221C199.433 385.221 199.16 385.101 199.04 384.861C198.92 384.621 198.86 384.335 198.86 384.001V377.841H197.52V377.101C198 377.101 198.333 377.075 198.52 377.021C198.707 376.955 198.82 376.775 198.86 376.481C198.9 376.188 198.92 375.695 198.92 375.001H199.74V377.101H201.64V377.841H199.74V384.441H201.64V385.221H199.86ZM202.214 388.781V388.021H203.254C203.521 388.021 203.734 387.941 203.894 387.781C204.054 387.621 204.261 387.281 204.514 386.761L205.514 384.581L202.334 377.101H203.294L205.994 383.581L208.854 377.101H209.834L205.314 386.921C205.074 387.455 204.861 387.855 204.674 388.121C204.488 388.388 204.288 388.561 204.074 388.641C203.861 388.735 203.601 388.781 203.294 388.781H202.214Z" fill="white"/>
<path d="M-74.8679 252.335L-74.0597 251.746L-75.8679 249.265L-75.8679 252.335L-74.8679 252.335ZM28.1795 393.718L29.1793 393.697L29.1729 393.383L28.9877 393.129L28.1795 393.718ZM-74.8679 336.48L-75.8679 336.48L-75.8679 336.8L-75.6821 337.061L-74.8679 336.48ZM23.1832 473.985L24.183 473.966L24.1771 473.656L23.9974 473.404L23.1832 473.985ZM23.7303 502.641L22.7304 502.66L22.7365 502.975L22.9221 503.23L23.7303 502.641ZM126.422 643.535L125.614 644.124L127.44 646.631L127.422 643.53L126.422 643.535ZM125.892 554.544L126.892 554.538L126.89 554.215L126.701 553.955L125.892 554.544ZM28.7374 421.245L27.7376 421.265L27.7439 421.58L27.9292 421.834L28.7374 421.245ZM-75.676 252.924L27.3714 394.307L28.9877 393.129L-74.0597 251.746L-75.676 252.924ZM-73.8679 336.48L-73.8679 252.335L-75.8679 252.335L-75.8679 336.48L-73.8679 336.48ZM23.9974 473.404L-74.0537 335.9L-75.6821 337.061L22.369 474.565L23.9974 473.404ZM24.7301 502.622L24.183 473.966L22.1834 474.004L22.7304 502.66L24.7301 502.622ZM127.23 642.946L24.5384 502.052L22.9221 503.23L125.614 644.124L127.23 642.946ZM124.892 554.55L125.422 643.541L127.422 643.53L126.892 554.538L124.892 554.55ZM27.9292 421.834L125.084 555.133L126.701 553.955L29.5455 420.656L27.9292 421.834ZM27.1797 393.738L27.7376 421.265L29.7371 421.225L29.1793 393.697L27.1797 393.738Z" fill="white" fill-opacity="0.04"/>
<path d="M-54.8679 252.335L-54.0597 251.746L-55.8679 249.265L-55.8679 252.335L-54.8679 252.335ZM48.1795 393.718L49.1793 393.697L49.1729 393.383L48.9876 393.129L48.1795 393.718ZM-54.8679 336.48L-55.8679 336.48L-55.8679 336.8L-55.6821 337.061L-54.8679 336.48ZM43.1832 473.985L44.183 473.966L44.1771 473.656L43.9974 473.404L43.1832 473.985ZM43.7303 502.641L42.7304 502.66L42.7365 502.975L42.9221 503.23L43.7303 502.641ZM146.422 643.535L145.614 644.124L147.44 646.631L147.422 643.53L146.422 643.535ZM145.892 554.544L146.892 554.538L146.89 554.215L146.701 553.955L145.892 554.544ZM48.7374 421.245L47.7376 421.265L47.7439 421.58L47.9292 421.834L48.7374 421.245ZM-55.676 252.924L47.3714 394.307L48.9876 393.129L-54.0597 251.746L-55.676 252.924ZM-53.8679 336.48L-53.8679 252.335L-55.8679 252.335L-55.8679 336.48L-53.8679 336.48ZM43.9974 473.404L-54.0537 335.9L-55.6821 337.061L42.369 474.565L43.9974 473.404ZM44.7301 502.622L44.183 473.966L42.1834 474.004L42.7304 502.66L44.7301 502.622ZM147.23 642.946L44.5384 502.052L42.9221 503.23L145.614 644.124L147.23 642.946ZM144.892 554.55L145.422 643.541L147.422 643.53L146.892 554.538L144.892 554.55ZM47.9292 421.834L145.084 555.133L146.701 553.955L49.5455 420.656L47.9292 421.834ZM47.1797 393.738L47.7376 421.265L49.7371 421.225L49.1793 393.697L47.1797 393.738Z" fill="white" fill-opacity="0.04"/>
<path d="M-24.8679 172.335L-24.0597 171.746L-25.8679 169.265L-25.8679 172.335L-24.8679 172.335ZM78.1795 313.718L79.1793 313.697L79.1729 313.383L78.9876 313.129L78.1795 313.718ZM-24.8679 256.48L-25.8679 256.48L-25.8679 256.8L-25.6821 257.061L-24.8679 256.48ZM73.1832 393.985L74.183 393.966L74.1771 393.656L73.9974 393.404L73.1832 393.985ZM73.7303 422.641L72.7304 422.66L72.7365 422.975L72.9221 423.23L73.7303 422.641ZM176.422 563.535L175.614 564.124L177.44 566.631L177.422 563.53L176.422 563.535ZM175.892 474.544L176.892 474.538L176.89 474.215L176.701 473.955L175.892 474.544ZM78.7374 341.245L77.7376 341.265L77.7439 341.58L77.9292 341.834L78.7374 341.245ZM-25.676 172.924L77.3714 314.307L78.9876 313.129L-24.0597 171.746L-25.676 172.924ZM-23.8679 256.48L-23.8679 172.335L-25.8679 172.335L-25.8679 256.48L-23.8679 256.48ZM73.9974 393.404L-24.0537 255.9L-25.6821 257.061L72.369 394.565L73.9974 393.404ZM74.7301 422.622L74.183 393.966L72.1834 394.004L72.7304 422.66L74.7301 422.622ZM177.23 562.946L74.5384 422.052L72.9221 423.23L175.614 564.124L177.23 562.946ZM174.892 474.55L175.422 563.541L177.422 563.53L176.892 474.538L174.892 474.55ZM77.9292 341.834L175.084 475.133L176.701 473.955L79.5455 340.656L77.9292 341.834ZM77.1797 313.738L77.7376 341.265L79.7371 341.225L79.1793 313.697L77.1797 313.738Z" fill="white" fill-opacity="0.04"/>
<path d="M-4.86786 172.335L-4.05973 171.746L-5.86785 169.265L-5.86786 172.335L-4.86786 172.335ZM98.1795 313.718L99.1793 313.697L99.1729 313.383L98.9876 313.129L98.1795 313.718ZM-4.86786 256.48L-5.86786 256.48L-5.86786 256.8L-5.68206 257.061L-4.86786 256.48ZM93.1832 393.985L94.183 393.966L94.1771 393.656L93.9974 393.404L93.1832 393.985ZM93.7303 422.641L92.7304 422.66L92.7365 422.975L92.9221 423.23L93.7303 422.641ZM196.422 563.535L195.614 564.124L197.44 566.631L197.422 563.53L196.422 563.535ZM195.892 474.544L196.892 474.538L196.89 474.215L196.701 473.955L195.892 474.544ZM98.7374 341.245L97.7376 341.265L97.7439 341.58L97.9292 341.834L98.7374 341.245ZM-5.67598 172.924L97.3714 314.307L98.9876 313.129L-4.05973 171.746L-5.67598 172.924ZM-3.86786 256.48L-3.86786 172.335L-5.86786 172.335L-5.86786 256.48L-3.86786 256.48ZM93.9974 393.404L-4.05366 255.9L-5.68206 257.061L92.369 394.565L93.9974 393.404ZM94.7301 422.622L94.183 393.966L92.1834 394.004L92.7304 422.66L94.7301 422.622ZM197.23 562.946L94.5384 422.052L92.9221 423.23L195.614 564.124L197.23 562.946ZM194.892 474.55L195.422 563.541L197.422 563.53L196.892 474.538L194.892 474.55ZM97.9292 341.834L195.084 475.133L196.701 473.955L99.5455 340.656L97.9292 341.834ZM97.1797 313.738L97.7376 341.265L99.7371 341.225L99.1793 313.697L97.1797 313.738Z" fill="white" fill-opacity="0.04"/>
<path d="M115.132 232.335L115.94 231.746L114.132 229.265L114.132 232.335L115.132 232.335ZM218.18 373.718L219.179 373.697L219.173 373.383L218.988 373.129L218.18 373.718ZM115.132 316.48L114.132 316.48L114.132 316.8L114.318 317.061L115.132 316.48ZM213.183 453.985L214.183 453.966L214.177 453.656L213.997 453.404L213.183 453.985ZM213.73 482.641L212.73 482.66L212.736 482.975L212.922 483.23L213.73 482.641ZM316.422 623.535L315.614 624.124L317.44 626.631L317.422 623.53L316.422 623.535ZM315.892 534.544L316.892 534.538L316.89 534.215L316.701 533.955L315.892 534.544ZM218.737 401.245L217.738 401.265L217.744 401.58L217.929 401.834L218.737 401.245ZM114.324 232.924L217.371 374.307L218.988 373.129L115.94 231.746L114.324 232.924ZM116.132 316.48L116.132 232.335L114.132 232.335L114.132 316.48L116.132 316.48ZM213.997 453.404L115.946 315.9L114.318 317.061L212.369 454.565L213.997 453.404ZM214.73 482.622L214.183 453.966L212.183 454.004L212.73 482.66L214.73 482.622ZM317.23 622.946L214.538 482.052L212.922 483.23L315.614 624.124L317.23 622.946ZM314.892 534.55L315.422 623.541L317.422 623.53L316.892 534.538L314.892 534.55ZM217.929 401.834L315.084 535.133L316.701 533.955L219.545 400.656L217.929 401.834ZM217.18 373.738L217.738 401.265L219.737 401.225L219.179 373.697L217.18 373.738Z" fill="white" fill-opacity="0.04"/>
<path d="M135.132 232.335L135.94 231.746L134.132 229.265L134.132 232.335L135.132 232.335ZM238.18 373.718L239.179 373.697L239.173 373.383L238.988 373.129L238.18 373.718ZM135.132 316.48L134.132 316.48L134.132 316.8L134.318 317.061L135.132 316.48ZM233.183 453.985L234.183 453.966L234.177 453.656L233.997 453.404L233.183 453.985ZM233.73 482.641L232.73 482.66L232.736 482.975L232.922 483.23L233.73 482.641ZM336.422 623.535L335.614 624.124L337.44 626.631L337.422 623.53L336.422 623.535ZM335.892 534.544L336.892 534.538L336.89 534.215L336.701 533.955L335.892 534.544ZM238.737 401.245L237.738 401.265L237.744 401.58L237.929 401.834L238.737 401.245ZM134.324 232.924L237.371 374.307L238.988 373.129L135.94 231.746L134.324 232.924ZM136.132 316.48L136.132 232.335L134.132 232.335L134.132 316.48L136.132 316.48ZM233.997 453.404L135.946 315.9L134.318 317.061L232.369 454.565L233.997 453.404ZM234.73 482.622L234.183 453.966L232.183 454.004L232.73 482.66L234.73 482.622ZM337.23 622.946L234.538 482.052L232.922 483.23L335.614 624.124L337.23 622.946ZM334.892 534.55L335.422 623.541L337.422 623.53L336.892 534.538L334.892 534.55ZM237.929 401.834L335.084 535.133L336.701 533.955L239.545 400.656L237.929 401.834ZM237.18 373.738L237.738 401.265L239.737 401.225L239.179 373.697L237.18 373.738Z" fill="white" fill-opacity="0.04"/>
<path d="M105.132 52.3347L105.94 51.7457L104.132 49.2649L104.132 52.3347L105.132 52.3347ZM208.18 193.718L209.179 193.697L209.173 193.383L208.988 193.129L208.18 193.718ZM105.132 136.48L104.132 136.48L104.132 136.8L104.318 137.061L105.132 136.48ZM203.183 273.985L204.183 273.966L204.177 273.656L203.997 273.404L203.183 273.985ZM203.73 302.641L202.73 302.66L202.736 302.975L202.922 303.23L203.73 302.641ZM306.422 443.535L305.614 444.124L307.44 446.631L307.422 443.53L306.422 443.535ZM305.892 354.544L306.892 354.538L306.89 354.215L306.701 353.955L305.892 354.544ZM208.737 221.245L207.738 221.265L207.744 221.58L207.929 221.834L208.737 221.245ZM104.324 52.9237L207.371 194.307L208.988 193.129L105.94 51.7457L104.324 52.9237ZM106.132 136.48L106.132 52.3347L104.132 52.3347L104.132 136.48L106.132 136.48ZM203.997 273.404L105.946 135.899L104.318 137.061L202.369 274.565L203.997 273.404ZM204.73 302.622L204.183 273.966L202.183 274.004L202.73 302.66L204.73 302.622ZM307.23 442.946L204.538 302.052L202.922 303.23L305.614 444.124L307.23 442.946ZM304.892 354.55L305.422 443.541L307.422 443.53L306.892 354.538L304.892 354.55ZM207.929 221.834L305.084 355.133L306.701 353.955L209.545 220.656L207.929 221.834ZM207.18 193.738L207.738 221.265L209.737 221.225L209.179 193.697L207.18 193.738Z" fill="white" fill-opacity="0.04"/>
<path d="M125.132 52.3347L125.94 51.7457L124.132 49.2649L124.132 52.3347L125.132 52.3347ZM228.18 193.718L229.179 193.697L229.173 193.383L228.988 193.129L228.18 193.718ZM125.132 136.48L124.132 136.48L124.132 136.8L124.318 137.061L125.132 136.48ZM223.183 273.985L224.183 273.966L224.177 273.656L223.997 273.404L223.183 273.985ZM223.73 302.641L222.73 302.66L222.736 302.975L222.922 303.23L223.73 302.641ZM326.422 443.535L325.614 444.124L327.44 446.631L327.422 443.53L326.422 443.535ZM325.892 354.544L326.892 354.538L326.89 354.215L326.701 353.955L325.892 354.544ZM228.737 221.245L227.738 221.265L227.744 221.58L227.929 221.834L228.737 221.245ZM124.324 52.9237L227.371 194.307L228.988 193.129L125.94 51.7457L124.324 52.9237ZM126.132 136.48L126.132 52.3347L124.132 52.3347L124.132 136.48L126.132 136.48ZM223.997 273.404L125.946 135.899L124.318 137.061L222.369 274.565L223.997 273.404ZM224.73 302.622L224.183 273.966L222.183 274.004L222.73 302.66L224.73 302.622ZM327.23 442.946L224.538 302.052L222.922 303.23L325.614 444.124L327.23 442.946ZM324.892 354.55L325.422 443.541L327.422 443.53L326.892 354.538L324.892 354.55ZM227.929 221.834L325.084 355.133L326.701 353.955L229.545 220.656L227.929 221.834ZM227.18 193.738L227.738 221.265L229.737 221.225L229.179 193.697L227.18 193.738Z" fill="white" fill-opacity="0.04"/>
<rect x="500" width="500" height="250" transform="rotate(90 500 0)" fill="#100146"/>
<rect x="384.686" y="29.7047" width="122" height="54" rx="22.5" transform="rotate(-31.1007 384.686 29.7047)" stroke="url(#paint0_linear_3_2)"/>
<path d="M381.968 261.414L317.473 172.926L316.387 116L381.636 205.523L381.968 261.414Z" fill="white"/>
<path d="M381.158 216.696L445.876 305.491L447.02 361.906L381.158 269.543L381.158 216.696Z" fill="url(#paint1_linear_3_2)"/>
<path d="M321.025 314.628L383.793 268.879L383.266 212.632L320.498 258.381L321.025 314.628Z" fill="url(#paint2_linear_3_2)"/>
<path d="M440.183 155.72L377.414 201.469L377.941 257.716L440.71 211.967L440.183 155.72Z" fill="white"/>
<mask id="mask0_3_2" style="mask-type:alpha" maskUnits="userSpaceOnUse" x="244" y="371" width="79" height="67">
<circle r="5.58333" transform="matrix(-1 0 0 1 249.583 376.583)" fill="white"/>
<circle r="5.58333" transform="matrix(-1 0 0 1 249.583 395.194)" fill="white"/>
<circle r="5.58333" transform="matrix(-1 0 0 1 249.583 413.806)" fill="white"/>
<circle r="5.58333" transform="matrix(-1 0 0 1 249.583 432.417)" fill="white"/>
<circle r="5.58333" transform="matrix(-1 0 0 1 271.917 376.583)" fill="white"/>
<circle r="5.58333" transform="matrix(-1 0 0 1 271.917 395.194)" fill="white"/>
<circle r="5.58333" transform="matrix(-1 0 0 1 271.917 413.806)" fill="white"/>
<circle r="5.58333" transform="matrix(-1 0 0 1 271.917 432.417)" fill="white"/>
<circle r="5.58333" transform="matrix(-1 0 0 1 294.25 376.583)" fill="white"/>
<circle r="5.58333" transform="matrix(-1 0 0 1 294.25 395.194)" fill="white"/>
<circle r="5.58333" transform="matrix(-1 0 0 1 294.25 413.806)" fill="white"/>
<circle r="5.58333" transform="matrix(-1 0 0 1 294.25 432.417)" fill="white"/>
<circle r="5.58333" transform="matrix(-1 0 0 1 316.583 376.583)" fill="white"/>
<circle r="5.58333" transform="matrix(-1 0 0 1 316.583 395.194)" fill="white"/>
<circle r="5.58333" transform="matrix(-1 0 0 1 316.583 413.806)" fill="white"/>
<circle r="5.58333" transform="matrix(-1 0 0 1 316.583 432.417)" fill="white"/>
</mask>
<g mask="url(#mask0_3_2)">
<rect x="250" y="369" width="82" height="71" fill="url(#paint3_linear_3_2)"/>
</g>
<path fill-rule="evenodd" clip-rule="evenodd" d="M35.8486 339.767L58.4001 370.708L37.4832 385.953L37.7681 416.353L70.5872 392.433L105.865 441.906L105.247 411.415L80.2182 377.075L102.455 360.868L102.17 330.468L68.6922 354.868L35.2612 309L35.8486 339.767Z" fill="black"/>
<path d="M58.4001 370.708L58.9891 371.516L59.7972 370.927L59.2082 370.119L58.4001 370.708ZM35.8486 339.767L34.8488 339.786L34.8548 340.101L35.0405 340.356L35.8486 339.767ZM37.4832 385.953L36.8942 385.145L36.4784 385.448L36.4832 385.963L37.4832 385.953ZM37.7681 416.353L36.7682 416.363L36.7864 418.306L38.3571 417.162L37.7681 416.353ZM70.5872 392.433L71.4014 391.853L70.8148 391.03L69.9982 391.625L70.5872 392.433ZM105.865 441.906L105.051 442.487L106.931 445.123L106.865 441.886L105.865 441.906ZM105.247 411.415L106.247 411.395L106.241 411.08L106.055 410.826L105.247 411.415ZM80.2182 377.075L79.6292 376.267L78.8211 376.856L79.4101 377.664L80.2182 377.075ZM102.455 360.868L103.044 361.676L103.46 361.373L103.455 360.858L102.455 360.868ZM102.17 330.468L103.17 330.458L103.152 328.515L101.581 329.659L102.17 330.468ZM68.6922 354.868L67.8841 355.457L68.4731 356.265L69.2812 355.676L68.6922 354.868ZM35.2612 309L36.0694 308.411L34.2009 305.847L34.2614 309.019L35.2612 309ZM59.2082 370.119L36.6567 339.178L35.0405 340.356L57.5919 371.297L59.2082 370.119ZM38.0722 386.761L58.9891 371.516L57.811 369.9L36.8942 385.145L38.0722 386.761ZM38.7681 416.344L38.4831 385.944L36.4832 385.963L36.7682 416.363L38.7681 416.344ZM69.9982 391.625L37.1791 415.545L38.3571 417.162L71.1762 393.241L69.9982 391.625ZM106.679 441.326L71.4014 391.853L69.773 393.014L105.051 442.487L106.679 441.326ZM104.247 411.435L104.865 441.926L106.865 441.886L106.247 411.395L104.247 411.435ZM79.4101 377.664L104.439 412.004L106.055 410.826L81.0264 376.486L79.4101 377.664ZM80.8072 377.883L103.044 361.676L101.866 360.06L79.6292 376.267L80.8072 377.883ZM103.455 360.858L103.17 330.458L101.17 330.477L101.455 360.877L103.455 360.858ZM101.581 329.659L68.1032 354.06L69.2812 355.676L102.759 331.276L101.581 329.659ZM34.4531 309.589L67.8841 355.457L69.5003 354.279L36.0694 308.411L34.4531 309.589ZM36.8484 339.748L36.261 308.981L34.2614 309.019L34.8488 339.786L36.8484 339.748Z" fill="white"/>
<rect x="424.686" y="31.7047" width="122" height="54" rx="22.5" transform="rotate(-31.1007 424.686 31.7047)" stroke="url(#paint4_linear_3_2)"/>
<path d="M70.7064 137.592L35.8486 89.767L35.2612 59L70.5267 107.385L70.7064 137.592Z" fill="#AC43FF"/>
<path d="M70.2687 113.424L105.247 161.415L105.865 191.906L70.2687 141.986L70.2687 113.424Z" fill="black"/>
<path d="M37.7682 166.353L71.693 141.627L71.408 111.227L37.4832 135.953L37.7682 166.353Z" fill="black"/>
<path d="M102.17 80.4676L68.2451 105.194L68.53 135.594L102.455 110.868L102.17 80.4676Z" fill="#AC43FF"/>
<path d="M114.457 135.481C113.683 135.481 112.937 135.355 112.217 135.101C111.51 134.848 110.93 134.455 110.477 133.921C110.023 133.375 109.783 132.668 109.757 131.801H110.677C110.677 131.841 110.69 131.968 110.717 132.181C110.743 132.381 110.81 132.621 110.917 132.901C111.037 133.168 111.23 133.435 111.497 133.701C111.777 133.968 112.157 134.195 112.637 134.381C113.117 134.555 113.743 134.641 114.517 134.641C115.21 134.641 115.763 134.561 116.177 134.401C116.603 134.228 116.923 134.021 117.137 133.781C117.35 133.541 117.49 133.308 117.557 133.081C117.637 132.841 117.683 132.661 117.697 132.541C117.71 132.035 117.577 131.628 117.297 131.321C117.03 131.001 116.67 130.748 116.217 130.561C115.777 130.361 115.283 130.195 114.737 130.061C114.203 129.928 113.663 129.788 113.117 129.641C112.583 129.481 112.09 129.281 111.637 129.041C111.197 128.801 110.843 128.488 110.577 128.101C110.31 127.715 110.19 127.208 110.217 126.581C110.243 125.995 110.443 125.495 110.817 125.081C111.203 124.655 111.71 124.328 112.337 124.101C112.963 123.875 113.663 123.761 114.437 123.761C115.183 123.761 115.87 123.895 116.497 124.161C117.123 124.428 117.617 124.828 117.977 125.361C118.35 125.895 118.523 126.561 118.497 127.361H117.597C117.61 126.801 117.503 126.341 117.277 125.981C117.063 125.621 116.783 125.341 116.437 125.141C116.09 124.941 115.73 124.808 115.357 124.741C114.983 124.661 114.65 124.621 114.357 124.621C113.437 124.621 112.677 124.815 112.077 125.201C111.477 125.575 111.17 126.055 111.157 126.641C111.143 127.148 111.27 127.555 111.537 127.861C111.817 128.168 112.177 128.415 112.617 128.601C113.07 128.775 113.563 128.928 114.097 129.061C114.643 129.195 115.183 129.335 115.717 129.481C116.25 129.628 116.737 129.821 117.177 130.061C117.63 130.301 117.983 130.628 118.237 131.041C118.503 131.441 118.63 131.961 118.617 132.601C118.59 133.215 118.39 133.735 118.017 134.161C117.643 134.588 117.143 134.915 116.517 135.141C115.903 135.368 115.217 135.481 114.457 135.481ZM124.091 135.421C123.558 135.421 123.098 135.328 122.711 135.141C122.338 134.955 122.031 134.728 121.791 134.461C121.551 134.195 121.371 133.948 121.251 133.721C121.131 133.495 121.051 133.335 121.011 133.241H120.971V138.421H120.051V127.101H120.831L120.991 129.301H121.031C121.058 129.208 121.125 129.048 121.231 128.821C121.351 128.581 121.525 128.335 121.751 128.081C121.991 127.815 122.298 127.588 122.671 127.401C123.058 127.201 123.525 127.101 124.071 127.101C124.858 127.101 125.518 127.288 126.051 127.661C126.598 128.035 127.011 128.535 127.291 129.161C127.585 129.788 127.731 130.495 127.731 131.281C127.731 132.068 127.585 132.775 127.291 133.401C126.998 134.028 126.578 134.521 126.031 134.881C125.498 135.241 124.851 135.421 124.091 135.421ZM123.991 134.561C124.658 134.561 125.198 134.408 125.611 134.101C126.038 133.781 126.345 133.368 126.531 132.861C126.731 132.355 126.831 131.821 126.831 131.261C126.831 130.701 126.718 130.175 126.491 129.681C126.278 129.175 125.951 128.768 125.511 128.461C125.071 128.141 124.518 127.981 123.851 127.981C123.051 127.981 122.378 128.275 121.831 128.861C121.298 129.435 121.031 130.235 121.031 131.261C121.031 132.315 121.318 133.128 121.891 133.701C122.465 134.275 123.165 134.561 123.991 134.561ZM131.728 135.401C130.981 135.401 130.361 135.215 129.868 134.841C129.375 134.468 129.008 133.968 128.768 133.341C128.528 132.701 128.408 131.995 128.408 131.221C128.408 130.421 128.528 129.708 128.768 129.081C129.021 128.441 129.395 127.941 129.888 127.581C130.381 127.208 130.995 127.021 131.728 127.021C132.515 127.021 133.141 127.215 133.608 127.601C134.075 127.975 134.408 128.408 134.608 128.901H134.648V127.101H135.568V135.221H134.808L134.648 133.541H134.608C134.395 134.035 134.055 134.468 133.588 134.841C133.121 135.215 132.501 135.401 131.728 135.401ZM132.068 134.561C132.921 134.561 133.561 134.268 133.988 133.681C134.415 133.095 134.628 132.281 134.628 131.241C134.628 130.135 134.401 129.301 133.948 128.741C133.508 128.181 132.881 127.901 132.068 127.901C131.121 127.901 130.428 128.221 129.988 128.861C129.548 129.488 129.328 130.275 129.328 131.221C129.328 132.208 129.555 133.015 130.008 133.641C130.461 134.255 131.148 134.561 132.068 134.561ZM140.43 135.421C139.283 135.421 138.35 135.061 137.63 134.341C136.91 133.621 136.55 132.628 136.55 131.361C136.563 130.521 136.736 129.781 137.07 129.141C137.403 128.501 137.863 128.001 138.45 127.641C139.036 127.281 139.716 127.101 140.49 127.101C141.476 127.101 142.29 127.375 142.93 127.921C143.583 128.455 143.983 129.128 144.13 129.941H143.27C143.136 129.315 142.816 128.828 142.31 128.481C141.816 128.121 141.216 127.941 140.51 127.941C139.59 127.941 138.85 128.255 138.29 128.881C137.73 129.508 137.45 130.321 137.45 131.321C137.45 132.321 137.716 133.115 138.25 133.701C138.796 134.288 139.53 134.581 140.45 134.581C141.17 134.581 141.783 134.401 142.29 134.041C142.81 133.681 143.136 133.188 143.27 132.561H144.13C143.983 133.388 143.576 134.075 142.91 134.621C142.243 135.155 141.416 135.421 140.43 135.421ZM149.016 135.421C148.15 135.421 147.43 135.215 146.856 134.801C146.296 134.388 145.876 133.861 145.596 133.221C145.316 132.568 145.183 131.895 145.196 131.201C145.196 130.481 145.343 129.808 145.636 129.181C145.93 128.555 146.356 128.055 146.916 127.681C147.49 127.295 148.183 127.101 148.996 127.101C150.01 127.101 150.843 127.435 151.496 128.101C152.163 128.755 152.536 129.635 152.616 130.741C152.63 130.808 152.636 130.888 152.636 130.981C152.636 131.075 152.636 131.161 152.636 131.241H146.076C146.076 132.268 146.33 133.088 146.836 133.701C147.343 134.315 148.07 134.621 149.016 134.621C149.696 134.621 150.283 134.441 150.776 134.081C151.283 133.721 151.596 133.235 151.716 132.621H152.616C152.456 133.448 152.05 134.121 151.396 134.641C150.756 135.161 149.963 135.421 149.016 135.421ZM146.136 130.641H151.696C151.683 130.295 151.583 129.908 151.396 129.481C151.223 129.055 150.936 128.681 150.536 128.361C150.15 128.041 149.636 127.881 148.996 127.881C148.116 127.881 147.443 128.155 146.976 128.701C146.51 129.248 146.23 129.895 146.136 130.641ZM158.543 135.481C157.769 135.481 157.023 135.355 156.303 135.101C155.596 134.848 155.016 134.455 154.563 133.921C154.109 133.375 153.869 132.668 153.843 131.801H154.763C154.763 131.841 154.776 131.968 154.803 132.181C154.829 132.381 154.896 132.621 155.003 132.901C155.123 133.168 155.316 133.435 155.583 133.701C155.863 133.968 156.243 134.195 156.723 134.381C157.203 134.555 157.829 134.641 158.603 134.641C159.296 134.641 159.849 134.561 160.263 134.401C160.689 134.228 161.009 134.021 161.223 133.781C161.436 133.541 161.576 133.308 161.643 133.081C161.723 132.841 161.769 132.661 161.783 132.541C161.796 132.035 161.663 131.628 161.383 131.321C161.116 131.001 160.756 130.748 160.303 130.561C159.863 130.361 159.369 130.195 158.823 130.061C158.289 129.928 157.749 129.788 157.203 129.641C156.669 129.481 156.176 129.281 155.723 129.041C155.283 128.801 154.929 128.488 154.663 128.101C154.396 127.715 154.276 127.208 154.303 126.581C154.329 125.995 154.529 125.495 154.903 125.081C155.289 124.655 155.796 124.328 156.423 124.101C157.049 123.875 157.749 123.761 158.523 123.761C159.269 123.761 159.956 123.895 160.583 124.161C161.209 124.428 161.703 124.828 162.063 125.361C162.436 125.895 162.609 126.561 162.583 127.361H161.683C161.696 126.801 161.589 126.341 161.363 125.981C161.149 125.621 160.869 125.341 160.523 125.141C160.176 124.941 159.816 124.808 159.443 124.741C159.069 124.661 158.736 124.621 158.443 124.621C157.523 124.621 156.763 124.815 156.163 125.201C155.563 125.575 155.256 126.055 155.243 126.641C155.229 127.148 155.356 127.555 155.623 127.861C155.903 128.168 156.263 128.415 156.703 128.601C157.156 128.775 157.649 128.928 158.183 129.061C158.729 129.195 159.269 129.335 159.803 129.481C160.336 129.628 160.823 129.821 161.263 130.061C161.716 130.301 162.069 130.628 162.323 131.041C162.589 131.441 162.716 131.961 162.703 132.601C162.676 133.215 162.476 133.735 162.103 134.161C161.729 134.588 161.229 134.915 160.603 135.141C159.989 135.368 159.303 135.481 158.543 135.481ZM167.537 135.421C166.671 135.421 165.951 135.215 165.377 134.801C164.817 134.388 164.397 133.861 164.117 133.221C163.837 132.568 163.704 131.895 163.717 131.201C163.717 130.481 163.864 129.808 164.157 129.181C164.451 128.555 164.877 128.055 165.437 127.681C166.011 127.295 166.704 127.101 167.517 127.101C168.531 127.101 169.364 127.435 170.017 128.101C170.684 128.755 171.057 129.635 171.137 130.741C171.151 130.808 171.157 130.888 171.157 130.981C171.157 131.075 171.157 131.161 171.157 131.241H164.597C164.597 132.268 164.851 133.088 165.357 133.701C165.864 134.315 166.591 134.621 167.537 134.621C168.217 134.621 168.804 134.441 169.297 134.081C169.804 133.721 170.117 133.235 170.237 132.621H171.137C170.977 133.448 170.571 134.121 169.917 134.641C169.277 135.161 168.484 135.421 167.537 135.421ZM164.657 130.641H170.217C170.204 130.295 170.104 129.908 169.917 129.481C169.744 129.055 169.457 128.681 169.057 128.361C168.671 128.041 168.157 127.881 167.517 127.881C166.637 127.881 165.964 128.155 165.497 128.701C165.031 129.248 164.751 129.895 164.657 130.641ZM176.144 135.421C174.997 135.421 174.064 135.061 173.344 134.341C172.624 133.621 172.264 132.628 172.264 131.361C172.277 130.521 172.45 129.781 172.784 129.141C173.117 128.501 173.577 128.001 174.164 127.641C174.75 127.281 175.43 127.101 176.204 127.101C177.19 127.101 178.004 127.375 178.644 127.921C179.297 128.455 179.697 129.128 179.844 129.941H178.984C178.85 129.315 178.53 128.828 178.024 128.481C177.53 128.121 176.93 127.941 176.224 127.941C175.304 127.941 174.564 128.255 174.004 128.881C173.444 129.508 173.164 130.321 173.164 131.321C173.164 132.321 173.43 133.115 173.964 133.701C174.51 134.288 175.244 134.581 176.164 134.581C176.884 134.581 177.497 134.401 178.004 134.041C178.524 133.681 178.85 133.188 178.984 132.561H179.844C179.697 133.388 179.29 134.075 178.624 134.621C177.957 135.155 177.13 135.421 176.144 135.421ZM184.21 135.421C183.357 135.421 182.704 135.228 182.25 134.841C181.797 134.455 181.484 133.955 181.31 133.341C181.15 132.715 181.07 132.048 181.07 131.341V127.101H181.97V131.341C181.97 131.955 182.03 132.508 182.15 133.001C182.284 133.481 182.524 133.868 182.87 134.161C183.23 134.441 183.75 134.581 184.43 134.581C185.07 134.581 185.577 134.435 185.95 134.141C186.337 133.835 186.624 133.448 186.81 132.981C186.997 132.501 187.104 131.995 187.13 131.461L187.15 127.101H188.07V135.221H187.31L187.15 133.281H187.11C187.03 133.561 186.87 133.868 186.63 134.201C186.39 134.535 186.07 134.821 185.67 135.061C185.284 135.301 184.797 135.421 184.21 135.421ZM189.84 135.221V127.101H190.62L190.74 129.181C190.873 128.608 191.187 128.115 191.68 127.701C192.173 127.288 192.867 127.088 193.76 127.101H194.2V128.121H193.76C192.853 128.121 192.187 128.268 191.76 128.561C191.333 128.841 191.053 129.221 190.92 129.701C190.8 130.181 190.74 130.715 190.74 131.301V135.221H189.84ZM195.823 126.241C195.597 126.255 195.443 126.195 195.363 126.061C195.283 125.928 195.243 125.768 195.243 125.581C195.243 125.408 195.283 125.261 195.363 125.141C195.443 125.021 195.597 124.961 195.823 124.961C196.037 124.961 196.183 125.021 196.263 125.141C196.343 125.261 196.383 125.408 196.383 125.581C196.383 125.781 196.343 125.941 196.263 126.061C196.183 126.181 196.037 126.241 195.823 126.241ZM195.343 135.221V127.101H196.243V135.221H195.343ZM199.86 135.221C199.433 135.221 199.16 135.101 199.04 134.861C198.92 134.621 198.86 134.335 198.86 134.001V127.841H197.52V127.101C198 127.101 198.333 127.075 198.52 127.021C198.707 126.955 198.82 126.775 198.86 126.481C198.9 126.188 198.92 125.695 198.92 125.001H199.74V127.101H201.64V127.841H199.74V134.441H201.64V135.221H199.86ZM202.214 138.781V138.021H203.254C203.521 138.021 203.734 137.941 203.894 137.781C204.054 137.621 204.261 137.281 204.514 136.761L205.514 134.581L202.334 127.101H203.294L205.994 133.581L208.854 127.101H209.834L205.314 136.921C205.074 137.455 204.861 137.855 204.674 138.121C204.488 138.388 204.288 138.561 204.074 138.641C203.861 138.735 203.601 138.781 203.294 138.781H202.214Z" fill="black"/>
</g>
<defs>
<linearGradient id="paint0_linear_3_2" x1="474.702" y1="45.6711" x2="348.097" y2="97.7616" gradientUnits="userSpaceOnUse">
<stop stop-color="#5813FF"/>
<stop offset="1" stop-color="#D97BFF"/>
</linearGradient>
<linearGradient id="paint1_linear_3_2" x1="387.137" y1="223.313" x2="444.494" y2="333.401" gradientUnits="userSpaceOnUse">
<stop stop-color="#5813FF"/>
<stop offset="1" stop-color="#D97BFF"/>
</linearGradient>
<linearGradient id="paint2_linear_3_2" x1="375.11" y1="223.313" x2="319.603" y2="278.82" gradientUnits="userSpaceOnUse">
<stop stop-color="#5813FF"/>
<stop offset="1" stop-color="#D97BFF"/>
</linearGradient>
<linearGradient id="paint3_linear_3_2" x1="250" y1="369" x2="332" y2="440" gradientUnits="userSpaceOnUse">
<stop stop-color="#5813FF"/>
<stop offset="1" stop-color="#D97BFF"/>
</linearGradient>
<linearGradient id="paint4_linear_3_2" x1="473.43" y1="58.9772" x2="434.019" y2="80.7491" gradientUnits="userSpaceOnUse">
<stop stop-color="#5813FF"/>
<stop offset="1" stop-color="#D97BFF"/>
</linearGradient>
<clipPath id="clip0_3_2">
<rect width="500" height="500" fill="white"/>
</clipPath>
</defs>
</svg>
